<svg xmlns="http://www.w3.org/2000/svg" xmlns:xlink="http://www.w3.org/1999/xlink" width="459.547" height="323.664" viewBox="0 0 459.547 323.664">
  <defs>
    <linearGradient id="linear-gradient" x1="0.5" y1="0.073" x2="0.521" y2="0.877" gradientUnits="objectBoundingBox">
      <stop offset="0" stop-color="#e3ecec"/>
      <stop offset="1" stop-color="#f7f7f7" stop-opacity="0"/>
    </linearGradient>
  </defs>
  <g id="Group_205054" data-name="Group 205054" transform="translate(-399 -6618)">
    <g id="Group_205040" data-name="Group 205040" transform="translate(-35.93 6508.947)">
      <path id="Path_92848" data-name="Path 92848" d="M229.523,0C356.285,0,459.047,109.906,459.047,245.482c0,65.483-25.222,78.183-25.222,78.183H44.587S0,313,0,245.482C0,109.906,102.761,0,229.523,0Z" transform="translate(434.93 109.053)" fill="url(#linear-gradient)"/>
      <path id="Path_92849" data-name="Path 92849" d="M156.247,442.543s-1.775,32.832-32.389,32.389c0,0,28.4,2.662,32.833,31.946,0,0,8.874-31.058,31.947-31.946C188.638,474.932,161.572,472.713,156.247,442.543Z" transform="translate(508.207 -320.368)" fill="#fff"/>
    </g>
    <g id="Group_205047" data-name="Group 205047" transform="translate(-1586.958 -439.139)">
      <path id="Path_111391" data-name="Path 111391" d="M535.774,274.335H332.709l20.706-236.3A14.427,14.427,0,0,1,367.508,25.08H570.686L556.629,36.331Z" transform="translate(1818.129 7088.04)" fill="#fff"/>
      <path id="Path_111392" data-name="Path 111392" d="M535.774,274.335H332.709l20.706-236.3A14.427,14.427,0,0,1,367.508,25.08H570.686L556.629,36.331Z" transform="translate(1818.129 7088.04)" fill="none" stroke="#e54b50" stroke-linecap="round" stroke-linejoin="round" stroke-width="1"/>
      <path id="Path_111393" data-name="Path 111393" d="M652.448,72H614.221l2.965-33.841a14.565,14.565,0,0,1,14.227-13.081,11.275,11.275,0,0,1,11.411,12.506L640.74,61.368Z" transform="translate(1757.402 7088.04)" fill="#ff676c"/>
      <path id="Path_111394" data-name="Path 111394" d="M652.448,72H614.221l2.965-33.841a14.565,14.565,0,0,1,14.227-13.081,11.275,11.275,0,0,1,11.411,12.506L640.74,61.368Z" transform="translate(1757.402 7088.04)" fill="none" stroke="#d45655" stroke-linecap="round" stroke-linejoin="round" stroke-width="1"/>
      <path id="Path_111395" data-name="Path 111395" d="M650.379,40.175,648.4,62.751a11.275,11.275,0,0,0,11.41,12.506,14.565,14.565,0,0,0,14.227-13.08l1.928-22Z" transform="translate(1750.039 7084.784)" fill="#fff"/>
      <path id="Path_111396" data-name="Path 111396" d="M650.379,40.175,648.4,62.751a11.275,11.275,0,0,0,11.41,12.506,14.565,14.565,0,0,0,14.227-13.08l1.928-22Z" transform="translate(1750.039 7084.784)" fill="none" stroke="#ff676c" stroke-linecap="round" stroke-linejoin="round" stroke-width="1"/>
      <line id="Line_42583" data-name="Line 42583" x2="36.7" transform="translate(2313.524 7183.484)" fill="none" stroke="#263238" stroke-linecap="round" stroke-linejoin="round" stroke-width="1"/>
      <line id="Line_42584" data-name="Line 42584" x2="84.04" transform="translate(2224.604 7183.484)" fill="none" stroke="#263238" stroke-linecap="round" stroke-linejoin="round" stroke-width="1"/>
      <line id="Line_42585" data-name="Line 42585" x2="28.59" transform="translate(2189.507 7183.484)" fill="none" stroke="#263238" stroke-linecap="round" stroke-linejoin="round" stroke-width="1"/>
      <line id="Line_42586" data-name="Line 42586" x2="84.107" transform="translate(2265.269 7193.16)" fill="none" stroke="#263238" stroke-linecap="round" stroke-linejoin="round" stroke-width="1"/>
      <line id="Line_42587" data-name="Line 42587" x2="72.543" transform="translate(2188.659 7193.16)" fill="none" stroke="#263238" stroke-linecap="round" stroke-linejoin="round" stroke-width="1"/>
      <line id="Line_42588" data-name="Line 42588" x2="34.191" transform="translate(2314.337 7202.835)" fill="none" stroke="#263238" stroke-linecap="round" stroke-linejoin="round" stroke-width="1"/>
      <line id="Line_42589" data-name="Line 42589" x2="120.562" transform="translate(2187.811 7202.835)" fill="none" stroke="#263238" stroke-linecap="round" stroke-linejoin="round" stroke-width="1"/>
      <line id="Line_42590" data-name="Line 42590" x2="38.765" transform="translate(2308.915 7212.51)" fill="none" stroke="#263238" stroke-linecap="round" stroke-linejoin="round" stroke-width="1"/>
      <line id="Line_42591" data-name="Line 42591" x2="89.192" transform="translate(2214.844 7212.51)" fill="none" stroke="#263238" stroke-linecap="round" stroke-linejoin="round" stroke-width="1"/>
      <line id="Line_42592" data-name="Line 42592" x2="24.085" transform="translate(2186.964 7212.51)" fill="none" stroke="#263238" stroke-linecap="round" stroke-linejoin="round" stroke-width="1"/>
      <line id="Line_42593" data-name="Line 42593" x2="11.891" transform="translate(2334.941 7222.186)" fill="none" stroke="#263238" stroke-linecap="round" stroke-linejoin="round" stroke-width="1"/>
      <line id="Line_42594" data-name="Line 42594" x2="93.529" transform="translate(2238.159 7222.186)" fill="none" stroke="#263238" stroke-linecap="round" stroke-linejoin="round" stroke-width="1"/>
      <line id="Line_42595" data-name="Line 42595" x2="48.247" transform="translate(2186.116 7222.186)" fill="none" stroke="#263238" stroke-linecap="round" stroke-linejoin="round" stroke-width="1"/>
      <line id="Line_42596" data-name="Line 42596" x2="22.158" transform="translate(2323.826 7231.861)" fill="none" stroke="#263238" stroke-linecap="round" stroke-linejoin="round" stroke-width="1"/>
      <line id="Line_42597" data-name="Line 42597" x2="80.245" transform="translate(2238.43 7231.861)" fill="none" stroke="#263238" stroke-linecap="round" stroke-linejoin="round" stroke-width="1"/>
      <line id="Line_42598" data-name="Line 42598" x2="47.469" transform="translate(2185.268 7231.861)" fill="none" stroke="#263238" stroke-linecap="round" stroke-linejoin="round" stroke-width="1"/>
      <line id="Line_42599" data-name="Line 42599" x2="17.515" transform="translate(2327.621 7241.536)" fill="none" stroke="#263238" stroke-linecap="round" stroke-linejoin="round" stroke-width="1"/>
      <line id="Line_42600" data-name="Line 42600" x2="47.713" transform="translate(2275.028 7241.536)" fill="none" stroke="#263238" stroke-linecap="round" stroke-linejoin="round" stroke-width="1"/>
      <line id="Line_42601" data-name="Line 42601" x2="65.606" transform="translate(2204.814 7241.536)" fill="none" stroke="#263238" stroke-linecap="round" stroke-linejoin="round" stroke-width="1"/>
      <line id="Line_42602" data-name="Line 42602" x2="16.869" transform="translate(2184.42 7241.536)" fill="none" stroke="#263238" stroke-linecap="round" stroke-linejoin="round" stroke-width="1"/>
      <line id="Line_42603" data-name="Line 42603" x2="5.823" transform="translate(2338.465 7251.211)" fill="none" stroke="#263238" stroke-linecap="round" stroke-linejoin="round" stroke-width="1"/>
      <line id="Line_42604" data-name="Line 42604" x2="35.514" transform="translate(2298.614 7251.211)" fill="none" stroke="#263238" stroke-linecap="round" stroke-linejoin="round" stroke-width="1"/>
      <line id="Line_42605" data-name="Line 42605" x2="43.647" transform="translate(2250.087 7251.211)" fill="none" stroke="#263238" stroke-linecap="round" stroke-linejoin="round" stroke-width="1"/>
      <line id="Line_42606" data-name="Line 42606" x2="11.386" transform="translate(2234.364 7251.211)" fill="none" stroke="#263238" stroke-linecap="round" stroke-linejoin="round" stroke-width="1"/>
      <line id="Line_42607" data-name="Line 42607" x2="46.996" transform="translate(2183.573 7251.211)" fill="none" stroke="#263238" stroke-linecap="round" stroke-linejoin="round" stroke-width="1"/>
      <path id="Path_111397" data-name="Path 111397" d="M465.418,100.335,533,98.081l-67.191-2.254,0-.03-.446.015-.444-.015,0,.03-67.586,2.254,67.191,2.254,0,.03.446-.015.444.015Z" transform="translate(1804.188 7072.785)" fill="#ff676c"/>
      <line id="Line_42608" data-name="Line 42608" x2="58.512" transform="translate(2282.412 7289.614)" fill="none" stroke="#263238" stroke-linecap="round" stroke-linejoin="round" stroke-width="1"/>
      <path id="Path_111398" data-name="Path 111398" d="M528.782,227.775s-10.9,21.46-22.189,18.971-11.563-17.105-1.132-26.124,10.145,15.551,7.538,31.1,2.957-12.44,7.189-32.345,10.781-5.909,5.8,1.244-22.292,13.062-19.68,8.087,21.023,4.975,17.014,15.239" transform="translate(1782.5 7048.335)" fill="none" stroke="#263238" stroke-linecap="round" stroke-linejoin="round" stroke-width="1"/>
      <path id="Path_111399" data-name="Path 111399" d="M534.8,241.825l3.138-3.965s-3.318,6.022-.469,3.672,7.355-8.518,5.828-6.168-4.047,7.637-2.412,5.728,6.039-6.9,4.818-4.7-2.627,4.846-2.04,4.846,4.907-5.728,4.191-4.259a21.972,21.972,0,0,0-1.125,2.79s2.888-2.79,2.543-2.2-5.1,14.686-5.1,14.686,4.507-9.545,8.6-12.63,5.039-2.2,5.039-2.2" transform="translate(1774.535 7042.791)" fill="none" stroke="#263238" stroke-linecap="round" stroke-linejoin="round" stroke-width="1"/>
      <path id="Path_111400" data-name="Path 111400" d="M426.409,240c-.067.758-1.654,1.434-1.79,2.172s1.144,1.711.936,2.44-1.874,1.106-2.152,1.819.765,1.93.419,2.619-2.023.733-2.434,1.391.358,2.074-.113,2.695-2.092.336-2.619.914-.061,2.137-.637,2.667-2.082-.073-2.7.4-.476,2.121-1.136,2.538-1.991-.478-2.684-.123-.874,2.023-1.594,2.311-1.822-.867-2.561-.649-1.24,1.846-1.993,1.993-1.581-1.223-2.34-1.151-1.555,1.6-2.313,1.6-1.3-1.528-2.031-1.6-1.825,1.295-2.542,1.151-.95-1.777-1.644-1.993-2.012.934-2.675.648-.562-1.958-1.189-2.311-2.121.539-2.706.123-.155-2.063-.691-2.539-2.149.126-2.632-.4.256-2.088-.169-2.667-2.1-.289-2.458-.913.656-2.033.359-2.695-1.962-.7-2.189-1.391,1.033-1.9.878-2.619-1.752-1.078-1.834-1.817,1.372-1.689,1.365-2.441-1.477-1.415-1.41-2.172,1.654-1.434,1.79-2.172-1.144-1.711-.936-2.44,1.874-1.106,2.153-1.819-.765-1.93-.42-2.619,2.023-.733,2.434-1.391-.358-2.074.113-2.695,2.092-.336,2.619-.914.061-2.138.637-2.667,2.082.073,2.7-.4.476-2.121,1.136-2.538,1.991.478,2.684.123.874-2.023,1.594-2.311,1.822.867,2.562.649,1.239-1.846,1.992-1.993,1.581,1.223,2.34,1.151,1.555-1.6,2.313-1.6,1.3,1.528,2.032,1.6,1.824-1.295,2.541-1.151.95,1.777,1.644,1.994,2.012-.935,2.676-.649.561,1.958,1.188,2.311,2.121-.539,2.706-.123.154,2.063.691,2.539,2.149-.126,2.632.4-.256,2.088.169,2.667,2.1.289,2.458.913-.656,2.033-.359,2.695,1.962.7,2.19,1.391-1.034,1.9-.878,2.619,1.752,1.078,1.834,1.817-1.372,1.689-1.364,2.441S426.475,239.241,426.409,240Z" transform="translate(1808.116 7046.777)" fill="none" stroke="#e54b50" stroke-linecap="round" stroke-linejoin="round" stroke-width="1"/>
      <path id="Path_111401" data-name="Path 111401" d="M420.931,242.071a17.934,17.934,0,0,1-17.518,16.107,14.521,14.521,0,0,1-14.7-16.107,17.935,17.935,0,0,1,17.518-16.107,14.521,14.521,0,0,1,14.7,16.107" transform="translate(1806.061 7044.705)" fill="#e54b50"/>
      <line id="Line_42609" data-name="Line 42609" x2="13.934" transform="translate(2204.397 7281.301)" fill="none" stroke="#fff" stroke-linecap="round" stroke-linejoin="round" stroke-width="1"/>
      <line id="Line_42610" data-name="Line 42610" x2="13.934" transform="translate(2203.547 7291.007)" fill="none" stroke="#fff" stroke-linecap="round" stroke-linejoin="round" stroke-width="1"/>
      <line id="Line_42611" data-name="Line 42611" x2="23.556" transform="translate(2199.128 7286.528)" fill="none" stroke="#fff" stroke-linecap="round" stroke-linejoin="round" stroke-width="1"/>
    </g>
    <g id="Group_205048" data-name="Group 205048" transform="translate(407 6786.336)">
      <path id="Path_111409" data-name="Path 111409" d="M553.771,374.09h10.072l.144.213a17.486,17.486,0,0,1,2.6-.213c12.28,0,22.235,12.81,22.235,28.609s-9.955,28.609-22.235,28.609c-.882,0-8.172-.084-9.027-.212l6.281.212H553.771c-12.28,0-22.235-12.808-22.235-28.609s9.955-28.609,22.235-28.609" transform="translate(-456.333 -283.539)" fill="#263238"/>
      <path id="Path_111410" data-name="Path 111410" d="M553.771,374.09h10.072l.144.213a17.486,17.486,0,0,1,2.6-.213c12.28,0,22.235,12.81,22.235,28.609s-9.955,28.609-22.235,28.609c-.882,0-8.172-.084-9.027-.212l6.281.212H553.771c-12.28,0-22.235-12.808-22.235-28.609S541.491,374.09,553.771,374.09Z" transform="translate(-456.333 -283.539)" fill="none" stroke="#263238" stroke-linecap="round" stroke-linejoin="round" stroke-width="1"/>
      <path id="Path_111411" data-name="Path 111411" d="M330.355,374.09h10.071l.145.213a17.486,17.486,0,0,1,2.6-.213c12.28,0,22.235,12.81,22.235,28.609s-9.955,28.609-22.235,28.609a17.486,17.486,0,0,1-2.6-.212l-.145.212H330.355c-12.28,0-22.235-12.808-22.235-28.609s9.955-28.609,22.235-28.609" transform="translate(-26.618 -283.539)" fill="#263238"/>
      <path id="Path_111412" data-name="Path 111412" d="M330.355,374.09h10.071l.145.213a17.486,17.486,0,0,1,2.6-.213c12.28,0,22.235,12.81,22.235,28.609s-9.955,28.609-22.235,28.609a17.486,17.486,0,0,1-2.6-.212l-.145.212H330.355c-12.28,0-22.235-12.808-22.235-28.609S318.075,374.09,330.355,374.09Z" transform="translate(-26.618 -283.539)" fill="none" stroke="#263238" stroke-linecap="round" stroke-linejoin="round" stroke-width="1"/>
      <path id="Path_111413" data-name="Path 111413" d="M202.359,367.419h4.831l4.331-30.358a7.5,7.5,0,0,1,7.426-6.442h27.088l43.984-46.675a25.2,25.2,0,0,1,18.339-7.918h116.6a18.658,18.658,0,0,1,13.463,5.742l200.267,84.547v35.7H338.424l-75.357-.535-55.878-3.664v-.255H202.6a1.834,1.834,0,0,1-1.834-1.834V369.016a1.6,1.6,0,0,1,1.6-1.6" transform="translate(-200.762 -276.026)" fill="#ff676c"/>
      <path id="Path_111414" data-name="Path 111414" d="M202.359,367.419h4.831l4.331-30.358a7.5,7.5,0,0,1,7.426-6.442h27.088l43.984-46.675a25.2,25.2,0,0,1,18.339-7.918h116.6a18.658,18.658,0,0,1,13.463,5.742l200.267,84.547v35.7H338.424l-75.357-.535-55.878-3.664v-.255H202.6a1.834,1.834,0,0,1-1.834-1.834V369.016A1.6,1.6,0,0,1,202.359,367.419Z" transform="translate(-200.762 -276.026)" fill="none" stroke="#b1090f" stroke-linecap="round" stroke-linejoin="round" stroke-width="1"/>
      <path id="Path_111415" data-name="Path 111415" d="M667.606,406.524v5.124l-24.592-.175-55.878-3.664v-.255h-4.594a1.821,1.821,0,0,1-1.629-1.031Z" transform="translate(-580.709 -286.024)" fill="#263238"/>
      <path id="Path_111416" data-name="Path 111416" d="M667.606,406.524v5.124l-24.592-.175-55.878-3.664v-.255h-4.594a1.821,1.821,0,0,1-1.629-1.031Z" transform="translate(-580.709 -286.024)" fill="none" stroke="#263238" stroke-linecap="round" stroke-linejoin="round" stroke-width="1"/>
      <path id="Path_111417" data-name="Path 111417" d="M202.476,401.475h0a1.834,1.834,0,0,1,.12-3.664h28.255L335.345,276.027h29.019a18.655,18.655,0,0,1,13.463,5.741l200.268,84.548v35.7H277.832Z" transform="translate(-140.171 -276.026)" fill="#263238"/>
      <path id="Path_111418" data-name="Path 111418" d="M202.476,401.475h0a1.834,1.834,0,0,1,.12-3.664h28.255L335.345,276.027h29.019a18.655,18.655,0,0,1,13.463,5.741l200.268,84.548v35.7H277.832Z" transform="translate(-140.171 -276.026)" fill="none" stroke="#263238" stroke-linecap="round" stroke-linejoin="round" stroke-width="1"/>
      <path id="Path_111419" data-name="Path 111419" d="M249.584,374.09h10.072l6.6,9.7a34.956,34.956,0,0,1,0,37.827l-6.6,9.7H249.584c-12.28,0-22.235-12.808-22.235-28.609s9.955-28.609,22.235-28.609" transform="translate(141.554 -283.539)" fill="#263238"/>
      <path id="Path_111420" data-name="Path 111420" d="M249.584,374.09h10.072l6.6,9.7a34.956,34.956,0,0,1,0,37.827l-6.6,9.7H249.584c-12.28,0-22.235-12.808-22.235-28.609S237.3,374.09,249.584,374.09Z" transform="translate(141.554 -283.539)" fill="none" stroke="#263238" stroke-linecap="round" stroke-linejoin="round" stroke-width="1"/>
      <path id="Path_111421" data-name="Path 111421" d="M213.467,402.7c0,15.8,9.955,28.609,22.235,28.609S257.936,418.5,257.936,402.7s-9.955-28.608-22.234-28.608S213.467,386.9,213.467,402.7" transform="translate(168.256 -283.539)" fill="#636363"/>
      <path id="Path_111422" data-name="Path 111422" d="M213.467,402.7c0,15.8,9.955,28.609,22.235,28.609S257.936,418.5,257.936,402.7s-9.955-28.608-22.234-28.608S213.467,386.9,213.467,402.7Z" transform="translate(168.256 -283.539)" fill="none" stroke="#263238" stroke-linecap="round" stroke-linejoin="round" stroke-width="1"/>
      <path id="Path_111423" data-name="Path 111423" d="M218.337,403.179c0,12.605,7.942,22.823,17.738,22.823s17.737-10.218,17.737-22.823-7.941-22.822-17.737-22.822-17.738,10.218-17.738,22.822" transform="translate(167.883 -284.019)" fill="#fff"/>
      <path id="Path_111424" data-name="Path 111424" d="M218.337,403.179c0,12.605,7.942,22.823,17.738,22.823s17.737-10.218,17.737-22.823-7.941-22.822-17.737-22.822S218.337,390.575,218.337,403.179Z" transform="translate(167.883 -284.019)" fill="none" stroke="#263238" stroke-linecap="round" stroke-linejoin="round" stroke-width="1"/>
      <path id="Path_111425" data-name="Path 111425" d="M233.488,404.673c0,2.663,1.678,4.822,3.747,4.822s3.748-2.159,3.748-4.822-1.678-4.822-3.748-4.822-3.747,2.159-3.747,4.822" transform="translate(166.722 -285.513)" fill="#fff"/>
      <path id="Path_111426" data-name="Path 111426" d="M233.488,404.673c0,2.663,1.678,4.822,3.747,4.822s3.748-2.159,3.748-4.822-1.678-4.822-3.748-4.822S233.488,402.01,233.488,404.673Z" transform="translate(166.722 -285.513)" fill="none" stroke="#263238" stroke-linecap="round" stroke-linejoin="round" stroke-width="1"/>
      <path id="Path_111427" data-name="Path 111427" d="M492.614,374.09h10.072l6.6,9.7a34.961,34.961,0,0,1,0,37.827l-6.6,9.7H492.614c-12.28,0-22.235-12.808-22.235-28.609s9.955-28.609,22.235-28.609" transform="translate(-325.885 -283.539)" fill="#263238"/>
      <path id="Path_111428" data-name="Path 111428" d="M492.614,374.09h10.072l6.6,9.7a34.961,34.961,0,0,1,0,37.827l-6.6,9.7H492.614c-12.28,0-22.235-12.808-22.235-28.609S480.334,374.09,492.614,374.09Z" transform="translate(-325.885 -283.539)" fill="none" stroke="#263238" stroke-linecap="round" stroke-linejoin="round" stroke-width="1"/>
      <path id="Path_111429" data-name="Path 111429" d="M456.5,402.7c0,15.8,9.955,28.609,22.234,28.609S500.965,418.5,500.965,402.7s-9.955-28.608-22.235-28.608S456.5,386.9,456.5,402.7" transform="translate(-299.182 -283.539)" fill="#636363"/>
      <path id="Path_111430" data-name="Path 111430" d="M456.5,402.7c0,15.8,9.955,28.609,22.234,28.609S500.965,418.5,500.965,402.7s-9.955-28.608-22.235-28.608S456.5,386.9,456.5,402.7Z" transform="translate(-299.182 -283.539)" fill="none" stroke="#263238" stroke-linecap="round" stroke-linejoin="round" stroke-width="1"/>
      <path id="Path_111431" data-name="Path 111431" d="M461.366,403.179c0,12.605,7.941,22.823,17.738,22.823s17.737-10.218,17.737-22.823S488.9,380.357,479.1,380.357s-17.738,10.218-17.738,22.822" transform="translate(-299.556 -284.019)" fill="#fff"/>
      <path id="Path_111432" data-name="Path 111432" d="M461.366,403.179c0,12.605,7.941,22.823,17.738,22.823s17.737-10.218,17.737-22.823S488.9,380.357,479.1,380.357,461.366,390.575,461.366,403.179Z" transform="translate(-299.556 -284.019)" fill="none" stroke="#263238" stroke-linecap="round" stroke-linejoin="round" stroke-width="1"/>
      <path id="Path_111433" data-name="Path 111433" d="M476.518,404.673c0,2.663,1.678,4.822,3.747,4.822s3.747-2.159,3.747-4.822-1.677-4.822-3.747-4.822-3.747,2.159-3.747,4.822" transform="translate(-300.717 -285.513)" fill="#fff"/>
      <ellipse id="Ellipse_1932" data-name="Ellipse 1932" cx="3.747" cy="4.822" rx="3.747" ry="4.822" transform="translate(175.801 114.339)" fill="none" stroke="#263238" stroke-linecap="round" stroke-linejoin="round" stroke-width="1"/>
      <path id="Path_111434" data-name="Path 111434" d="M520.015,284.51c.363-.386.757-.734,1.141-1.093H611.99V328.3H478.753Z" transform="translate(-430.759 -276.592)" fill="#fadcde"/>
      <path id="Path_111435" data-name="Path 111435" d="M520.015,284.51c.363-.386.757-.734,1.141-1.093H611.99V328.3H478.753Z" transform="translate(-430.759 -276.592)" fill="none" stroke="#b1090f" stroke-linecap="round" stroke-linejoin="round" stroke-width="1"/>
      <path id="Path_111436" data-name="Path 111436" d="M186.55,367.419h5.294l5.249-36.8h33.6l43.983-46.675a25.2,25.2,0,0,1,18.339-7.918H400.041a18.656,18.656,0,0,1,13.463,5.742l68.366,45.7,63.255,27.3,9.9,13.291a18.94,18.94,0,0,1,3.751,11.315V402.01H538.825v-7.543c0-18.447-13.415-33.4-29.963-33.4-14.744,0-23.906,11.957-26.206,28.192L480.85,402.01h-166.7v-7.543c0-18.447-7.569-33.4-27.915-33.4-18.128,0-24.61,11.957-27.437,28.192l-2.128,12.218-64.829-3.664v-.255H186.55Z" transform="translate(-107.725 -276.026)" fill="#ff676c"/>
      <path id="Path_111437" data-name="Path 111437" d="M186.55,367.419h5.294l5.249-36.8h33.6l43.983-46.675a25.2,25.2,0,0,1,18.339-7.918H400.041a18.656,18.656,0,0,1,13.463,5.742l68.366,45.7,63.255,27.3,9.9,13.291a18.94,18.94,0,0,1,3.751,11.315V402.01H538.825v-7.543c0-18.447-13.415-33.4-29.963-33.4-14.744,0-23.906,11.957-26.206,28.192L480.85,402.01h-166.7v-7.543c0-18.447-7.569-33.4-27.915-33.4-18.128,0-24.61,11.957-27.437,28.192l-2.128,12.218-64.829-3.664v-.255H186.55Z" transform="translate(-107.725 -276.026)" fill="none" stroke="#b1090f" stroke-linecap="round" stroke-linejoin="round" stroke-width="1"/>
      <path id="Path_111438" data-name="Path 111438" d="M331.93,289.1l58.7,38.975H280.919V283.985h38.845A17.013,17.013,0,0,1,331.93,289.1" transform="translate(-26.722 -276.635)" fill="#fadcde"/>
      <path id="Path_111439" data-name="Path 111439" d="M331.93,289.1l58.7,38.975H280.919V283.985h38.845A17.013,17.013,0,0,1,331.93,289.1Z" transform="translate(-26.722 -276.635)" fill="none" stroke="#b1090f" stroke-linecap="round" stroke-linejoin="round" stroke-width="1"/>
      <path id="Path_111440" data-name="Path 111440" d="M335.388,328.079l-34.8-44.094h9.882a17.015,17.015,0,0,1,12.166,5.119l20.54,13.637,19.994,25.338Z" transform="translate(-17.433 -276.635)" fill="#fff"/>
      <path id="Path_111442" data-name="Path 111442" d="M372.674,329.111V297.448l24.986,31.663Z" transform="translate(-118.477 -277.667)" fill="#fff"/>
      <path id="Path_111444" data-name="Path 111444" d="M434.561,291.166l-24.955,25.522a6.7,6.7,0,0,0,4.793,11.391H510.8V283.985H451.626a23.865,23.865,0,0,0-17.065,7.181" transform="translate(-263.956 -276.635)" fill="#fadcde"/>
      <path id="Path_111445" data-name="Path 111445" d="M434.561,291.166l-24.955,25.522a6.7,6.7,0,0,0,4.793,11.391H510.8V283.985H451.626A23.865,23.865,0,0,0,434.561,291.166Z" transform="translate(-263.956 -276.635)" fill="none" stroke="#b1090f" stroke-linecap="round" stroke-linejoin="round" stroke-width="1"/>
      <path id="Path_111446" data-name="Path 111446" d="M416.763,283.985h9.693l34.8,44.094h-9.693Z" transform="translate(-222.781 -276.635)" fill="#fff"/>
      <path id="Path_111448" data-name="Path 111448" d="M437.94,287.1v35.212l-30.248-38.332h27.787Z" transform="translate(-191.092 -276.635)" fill="#fff"/>
      <path id="Path_111450" data-name="Path 111450" d="M661.178,335.149H590a7.5,7.5,0,0,0-7.426,6.442l-4.331,30.358h77.69Z" transform="translate(-571.811 -280.556)" fill="#ff676c"/>
      <path id="Path_111451" data-name="Path 111451" d="M661.178,335.149H590a7.5,7.5,0,0,0-7.426,6.442l-4.331,30.358h77.69Z" transform="translate(-571.811 -280.556)" fill="none" stroke="#a3231d" stroke-linecap="round" stroke-linejoin="round" stroke-width="1"/>
      <rect id="Rectangle_21033" data-name="Rectangle 21033" width="33.758" height="13.863" transform="translate(21.8 71.187)" fill="#fff"/>
      <rect id="Rectangle_21034" data-name="Rectangle 21034" width="33.758" height="13.863" transform="translate(21.8 71.187)" fill="none" stroke="#b1090f" stroke-linecap="round" stroke-linejoin="round" stroke-width="1"/>
      <line id="Line_42612" data-name="Line 42612" x2="144.655" transform="translate(2.718 97.068)" fill="#fff"/>
      <line id="Line_42613" data-name="Line 42613" x2="144.655" transform="translate(2.718 97.068)" fill="none" stroke="#b1090f" stroke-linecap="round" stroke-linejoin="round" stroke-width="2"/>
      <line id="Line_42614" data-name="Line 42614" x2="160.303" transform="translate(212.012 97.068)" fill="#fff"/>
      <line id="Line_42615" data-name="Line 42615" x2="160.303" transform="translate(212.012 97.068)" fill="none" stroke="#b1090f" stroke-linecap="round" stroke-linejoin="round" stroke-width="2"/>
      <line id="Line_42616" data-name="Line 42616" x2="18.348" transform="translate(425.534 97.068)" fill="#fff"/>
      <line id="Line_42617" data-name="Line 42617" x2="18.348" transform="translate(425.534 97.068)" fill="none" stroke="#b1090f" stroke-linecap="round" stroke-linejoin="round" stroke-width="2"/>
      <path id="Path_111452" data-name="Path 111452" d="M560.156,353.362H592.05a7.947,7.947,0,0,1,7.108,4.393l5.334,10.668a3.21,3.21,0,0,1-2.871,4.645H560.156Z" transform="translate(-498.77 -281.951)" fill="#fff"/>
      <path id="Path_111453" data-name="Path 111453" d="M560.156,353.362H592.05a7.947,7.947,0,0,1,7.108,4.393l5.334,10.668a3.21,3.21,0,0,1-2.871,4.645H560.156Z" transform="translate(-498.77 -281.951)" fill="none" stroke="#b1090f" stroke-linecap="round" stroke-linejoin="round" stroke-width="1"/>
      <path id="Path_111454" data-name="Path 111454" d="M580.706,353.362h25.7L603.6,373.068H580.706Z" transform="translate(-519.32 -281.951)" fill="#b1090f"/>
      <path id="Path_111456" data-name="Path 111456" d="M659.113,353.362H666.9l.1,19.706H656.3Z" transform="translate(-649.713 -281.951)" fill="#b1090f"/>
      <path id="Path_111457" data-name="Path 111457" d="M659.113,353.362H666.9l.1,19.706H656.3Z" transform="translate(-649.713 -281.951)" fill="none" stroke="#b1090f" stroke-linecap="round" stroke-linejoin="round" stroke-width="1"/>
      <path id="Path_111458" data-name="Path 111458" d="M270.828,339.112h16.779a1.846,1.846,0,0,0,1.847-1.847V323.637a1.846,1.846,0,0,0-1.847-1.847H270.828a1.846,1.846,0,0,0-1.847,1.847v13.628a1.846,1.846,0,0,0,1.847,1.847" transform="translate(85.478 -279.532)" fill="#b1090f"/>
      <rect id="Rectangle_21036" data-name="Rectangle 21036" width="19.685" height="6.028" rx="3.014" transform="translate(256.821 59.58)" fill="#b1090f"/>
      <rect id="Rectangle_21134" data-name="Rectangle 21134" width="19.685" height="6.028" rx="3.014" transform="translate(151.968 59.979)" fill="#b1090f"/>
      <line id="Line_42618" data-name="Line 42618" y2="59.843" transform="translate(252.097 56.431)" fill="none" stroke="#b1090f" stroke-linecap="round" stroke-linejoin="round" stroke-width="1"/>
      <path id="Path_111459" data-name="Path 111459" d="M427.187,366.132s-14.418,8.136-16.265,35.958H257.895" transform="translate(-42.019 -282.929)" fill="none" stroke="#b1090f" stroke-linecap="round" stroke-linejoin="round" stroke-width="1"/>
      <path id="Path_111460" data-name="Path 111460" d="M451.465,377.29s7.538-19.685,32.776-19.685c17.59,0,26,9.238,30.216,16.535" transform="translate(-308.029 -282.276)" fill="none" stroke="#b1090f" stroke-linecap="round" stroke-linejoin="round" stroke-width="1"/>
    </g>
    <path id="Path_111922" data-name="Path 111922" d="M6.939.27Q4.887.27,3.348.189T.27-.027L3.294-18.9q1.674-.135,3.091-.2t2.767-.068q4.023,0,6.1,1.917a7.409,7.409,0,0,1,2.079,5.724,15.115,15.115,0,0,1-1.215,6.345,8.961,8.961,0,0,1-3.537,4.05A10.714,10.714,0,0,1,6.939.27Zm.405-3.321a4.8,4.8,0,0,0,4.131-2.2,10.65,10.65,0,0,0,1.539-6.17,4.427,4.427,0,0,0-1.066-3.253,3.676,3.676,0,0,0-2.714-1.066q-.675,0-1.242.027t-.972.081l-2,12.474q.648.027,1.121.067T7.344-3.051Zm16.5-11.637-.27,1.7A10.828,10.828,0,0,1,25.7-14.5a4.126,4.126,0,0,1,1.863-.459,4.917,4.917,0,0,1,1.755.3l-1.215,4a6.766,6.766,0,0,0-1.728-.243,4.216,4.216,0,0,0-1.337.229,6.888,6.888,0,0,0-1.552.8L21.9,0h-4.1l2.349-14.688Zm9.774-5.994q2.079,0,2.079,1.647a2.925,2.925,0,0,1-.756,2.052,2.754,2.754,0,0,1-2.079.756q-2.079,0-2.079-1.674a2.951,2.951,0,0,1,.675-2A2.707,2.707,0,0,1,33.615-20.682ZM28.269,0l2.322-14.688h4.131L32.4,0ZM42.444,0H37.5L35.829-14.688l4.374-.027.459,11.178q1.323-2.619,2.187-4.55a25.207,25.207,0,0,0,1.3-3.483,13.308,13.308,0,0,0,.486-3.119h4.32a15.421,15.421,0,0,1-.972,4.307,35.219,35.219,0,0,1-2.2,4.644Q44.388-3.24,42.444,0ZM53.757-20.682q2.079,0,2.079,1.647a2.925,2.925,0,0,1-.756,2.052A2.754,2.754,0,0,1,53-16.227q-2.079,0-2.079-1.674a2.951,2.951,0,0,1,.675-2A2.707,2.707,0,0,1,53.757-20.682ZM48.411,0l2.322-14.688h4.131L52.542,0Zm9.045-14.688h3.78l-.189,1.269a8.219,8.219,0,0,1,4.671-1.539,3.617,3.617,0,0,1,2.551.837,2.973,2.973,0,0,1,.9,2.3,9.689,9.689,0,0,1-.121,1.134q-.122.837-.3,1.9t-.365,2.12q-.189,1.053-.31,1.822a8.581,8.581,0,0,0-.122.985.5.5,0,0,0,.567.567,1.7,1.7,0,0,0,.54-.081L68.85-.162a3.83,3.83,0,0,1-1.066.324,7.173,7.173,0,0,1-1.2.108,3.18,3.18,0,0,1-2.106-.675,2.205,2.205,0,0,1-.81-1.782A10.716,10.716,0,0,1,63.774-3.4q.108-.837.284-1.877t.351-2.066q.175-1.026.284-1.809a9.56,9.56,0,0,0,.108-1.053,1.235,1.235,0,0,0-.311-.891,1.354,1.354,0,0,0-1.013-.324,3.924,3.924,0,0,0-1.242.216,7.621,7.621,0,0,0-1.242.54L59.265,0H55.134ZM69.579,4.86l1.053-3.213a16.875,16.875,0,0,0,2.174.594,11.008,11.008,0,0,0,2.227.243,3.62,3.62,0,0,0,2.241-.635,3.385,3.385,0,0,0,1.08-2.308l.081-.729a7.618,7.618,0,0,1-1.93.715,8.2,8.2,0,0,1-1.8.256A3.938,3.938,0,0,1,71.55-1.471,5.02,5.02,0,0,1,70.47-4.86a14.32,14.32,0,0,1,.878-5.17,7.587,7.587,0,0,1,2.781-3.6,8.607,8.607,0,0,1,5.008-1.323,17.753,17.753,0,0,1,1.971.122q1.08.122,2.038.3a10.448,10.448,0,0,1,1.5.365L82.512-.7A8.477,8.477,0,0,1,80.2,4.28,6.877,6.877,0,0,1,75.3,5.94a15.317,15.317,0,0,1-3.037-.3A15.475,15.475,0,0,1,69.579,4.86ZM80.055-11.475q-.3-.108-.661-.2a3.669,3.669,0,0,0-.9-.094,2.68,2.68,0,0,0-1.984.877,6,6,0,0,0-1.323,2.214,8.164,8.164,0,0,0-.473,2.74,2.718,2.718,0,0,0,.54,1.85,1.918,1.918,0,0,0,1.512.608,3.657,3.657,0,0,0,1.066-.189A6.254,6.254,0,0,0,78.894-4.1ZM92.313,0l3.051-18.9H99.6L97.173-3.645h7.884L104.436,0Zm19.2-20.682q2.079,0,2.079,1.647a2.924,2.924,0,0,1-.756,2.052,2.754,2.754,0,0,1-2.079.756q-2.079,0-2.079-1.674a2.951,2.951,0,0,1,.675-2A2.707,2.707,0,0,1,111.51-20.682ZM106.164,0l2.322-14.688h4.131L110.295,0Zm13.149.27a6.332,6.332,0,0,1-4.549-1.444,5.344,5.344,0,0,1-1.5-4.036,12.879,12.879,0,0,1,.945-5.116,7.486,7.486,0,0,1,2.808-3.416,8.279,8.279,0,0,1,4.617-1.215,17.449,17.449,0,0,1,2.268.149,13.512,13.512,0,0,1,2.052.418l-1.134,3.375a11.581,11.581,0,0,0-1.7-.338,13.741,13.741,0,0,0-1.593-.094,3.241,3.241,0,0,0-2.146.756,4.939,4.939,0,0,0-1.4,2.012,7.423,7.423,0,0,0-.5,2.767,2.489,2.489,0,0,0,.8,1.971,3.214,3.214,0,0,0,2.2.7,15.352,15.352,0,0,0,1.606-.081,13.671,13.671,0,0,0,1.688-.3l.3,3.186a12.306,12.306,0,0,1-2.295.527A17.936,17.936,0,0,1,119.313.27ZM137.4-.675a12.991,12.991,0,0,1-2.646.716A17.055,17.055,0,0,1,132,.27a6.571,6.571,0,0,1-4.657-1.526,5.639,5.639,0,0,1-1.633-4.334,11.65,11.65,0,0,1,.945-4.793,7.611,7.611,0,0,1,2.822-3.348,8.329,8.329,0,0,1,4.658-1.229,5.662,5.662,0,0,1,3.55,1.013A3.228,3.228,0,0,1,139-11.259a4.487,4.487,0,0,1-1.687,3.564,9.216,9.216,0,0,1-4.631,1.89,20.675,20.675,0,0,1-2.862.216,2.411,2.411,0,0,0,.783,1.863,3.532,3.532,0,0,0,2.16.54,10.927,10.927,0,0,0,1.836-.189,16.972,16.972,0,0,0,2.322-.594Zm-3.888-11.151a2.938,2.938,0,0,0-2.214,1.012,5.734,5.734,0,0,0-1.323,2.767q.378-.027.783-.068t.783-.094a6.145,6.145,0,0,0,2.484-.891,1.923,1.923,0,0,0,.918-1.566Q134.946-11.826,133.515-11.826Zm7.965-2.862h3.78l-.189,1.269a8.219,8.219,0,0,1,4.671-1.539,3.617,3.617,0,0,1,2.551.837,2.973,2.973,0,0,1,.9,2.3,9.69,9.69,0,0,1-.121,1.134q-.122.837-.3,1.9t-.365,2.12q-.189,1.053-.311,1.822a8.58,8.58,0,0,0-.122.985.5.5,0,0,0,.567.567,1.7,1.7,0,0,0,.54-.081l-.216,3.213a3.83,3.83,0,0,1-1.067.324,7.172,7.172,0,0,1-1.2.108A3.18,3.18,0,0,1,148.5-.405a2.205,2.205,0,0,1-.81-1.782A10.715,10.715,0,0,1,147.8-3.4q.108-.837.283-1.877t.351-2.066q.176-1.026.284-1.809a9.558,9.558,0,0,0,.108-1.053,1.235,1.235,0,0,0-.311-.891,1.354,1.354,0,0,0-1.012-.324,3.924,3.924,0,0,0-1.242.216,7.622,7.622,0,0,0-1.242.54L143.289,0h-4.131ZM153.468-.783l1-3.1a14.605,14.605,0,0,0,2.282.688,12.073,12.073,0,0,0,2.686.311,7.186,7.186,0,0,0,2.282-.257.9.9,0,0,0,.688-.878,1.164,1.164,0,0,0-.526-1.012,4.468,4.468,0,0,0-1.364-.594l-1.768-.486a8.624,8.624,0,0,1-1.769-.7,3.73,3.73,0,0,1-1.363-1.229,3.723,3.723,0,0,1-.527-2.106,4.248,4.248,0,0,1,1.62-3.524,8.1,8.1,0,0,1,5.049-1.283,14.621,14.621,0,0,1,2.632.23,11.6,11.6,0,0,1,2.146.58l-.918,3.132a13.258,13.258,0,0,0-2.025-.527,11.717,11.717,0,0,0-2.106-.2,6.593,6.593,0,0,0-2.255.27.923.923,0,0,0-.661.891,1.044,1.044,0,0,0,.527.945,4.738,4.738,0,0,0,1.363.526q.837.2,1.769.418A7.567,7.567,0,0,1,164-8.046a3.617,3.617,0,0,1,1.363,1.215,3.778,3.778,0,0,1,.527,2.133,4.8,4.8,0,0,1-.81,2.943A4.459,4.459,0,0,1,162.783-.2a11.624,11.624,0,0,1-3.51.472,15.925,15.925,0,0,1-3.267-.3A15.1,15.1,0,0,1,153.468-.783Zm25.6.108a12.991,12.991,0,0,1-2.646.716,17.055,17.055,0,0,1-2.754.229,6.571,6.571,0,0,1-4.658-1.526,5.639,5.639,0,0,1-1.633-4.334,11.65,11.65,0,0,1,.945-4.793,7.611,7.611,0,0,1,2.822-3.348,8.329,8.329,0,0,1,4.658-1.229,5.662,5.662,0,0,1,3.55,1.013,3.228,3.228,0,0,1,1.31,2.686,4.487,4.487,0,0,1-1.687,3.564,9.216,9.216,0,0,1-4.631,1.89,20.675,20.675,0,0,1-2.862.216,2.411,2.411,0,0,0,.783,1.863,3.532,3.532,0,0,0,2.16.54,10.927,10.927,0,0,0,1.836-.189,16.972,16.972,0,0,0,2.322-.594Zm-3.888-11.151a2.938,2.938,0,0,0-2.214,1.012,5.734,5.734,0,0,0-1.323,2.767q.378-.027.783-.068t.783-.094a6.145,6.145,0,0,0,2.484-.891,1.923,1.923,0,0,0,.918-1.566Q176.607-11.826,175.176-11.826Z" transform="translate(594.772 6711.422)" fill="#263238"/>
  </g>
</svg>
